<svg width="30" height="30" viewBox="0 0 30 30" fill="none" xmlns="http://www.w3.org/2000/svg">
<circle cx="15" cy="15" r="14" stroke="white" stroke-width="2"/>
<path d="M12.8604 19.4082C12.8604 19.4668 12.793 19.5137 12.708 19.5137C12.6113 19.5225 12.5439 19.4756 12.5439 19.4082C12.5439 19.3496 12.6113 19.3027 12.6963 19.3027C12.7842 19.2939 12.8604 19.3408 12.8604 19.4082ZM11.9492 19.2764C11.9287 19.335 11.9873 19.4023 12.0752 19.4199C12.1514 19.4492 12.2393 19.4199 12.2568 19.3613C12.2744 19.3027 12.2188 19.2354 12.1309 19.209C12.0547 19.1885 11.9697 19.2178 11.9492 19.2764ZM13.2441 19.2266C13.1592 19.2471 13.1006 19.3027 13.1094 19.3701C13.1182 19.4287 13.1943 19.4668 13.2822 19.4463C13.3672 19.4258 13.4258 19.3701 13.417 19.3115C13.4082 19.2559 13.3291 19.2178 13.2441 19.2266ZM15.1719 8C11.1084 8 8 11.085 8 15.1484C8 18.3975 10.0449 21.1777 12.9658 22.1563C13.3408 22.2236 13.4727 21.9922 13.4727 21.8018C13.4727 21.6201 13.4639 20.6182 13.4639 20.0029C13.4639 20.0029 11.4131 20.4424 10.9824 19.1299C10.9824 19.1299 10.6484 18.2773 10.168 18.0576C10.168 18.0576 9.49707 17.5977 10.2148 17.6064C10.2148 17.6064 10.9443 17.665 11.3457 18.3623C11.9873 19.4932 13.0625 19.168 13.4814 18.9746C13.5488 18.5059 13.7393 18.1807 13.9502 17.9873C12.3125 17.8057 10.6602 17.5684 10.6602 14.75C10.6602 13.9443 10.8828 13.54 11.3516 13.0244C11.2754 12.834 11.0264 12.0488 11.4277 11.0352C12.04 10.8447 13.4492 11.8262 13.4492 11.8262C14.0352 11.6621 14.665 11.5771 15.2891 11.5771C15.9131 11.5771 16.543 11.6621 17.1289 11.8262C17.1289 11.8262 18.5381 10.8418 19.1504 11.0352C19.5518 12.0518 19.3027 12.834 19.2266 13.0244C19.6953 13.543 19.9824 13.9473 19.9824 14.75C19.9824 17.5771 18.2568 17.8027 16.6191 17.9873C16.8887 18.2187 17.1172 18.6582 17.1172 19.3467C17.1172 20.334 17.1084 21.5557 17.1084 21.7959C17.1084 21.9863 17.2432 22.2178 17.6152 22.1504C20.5449 21.1777 22.5312 18.3975 22.5312 15.1484C22.5312 11.085 19.2354 8 15.1719 8ZM10.8477 18.1045C10.8096 18.1338 10.8184 18.2012 10.8682 18.2568C10.915 18.3037 10.9824 18.3242 11.0205 18.2861C11.0586 18.2568 11.0498 18.1895 11 18.1338C10.9531 18.0869 10.8857 18.0664 10.8477 18.1045ZM10.5313 17.8672C10.5107 17.9053 10.54 17.9521 10.5986 17.9814C10.6455 18.0107 10.7041 18.002 10.7246 17.9609C10.7451 17.9229 10.7158 17.876 10.6572 17.8467C10.5986 17.8291 10.5518 17.8379 10.5313 17.8672ZM11.4805 18.9102C11.4336 18.9482 11.4512 19.0361 11.5186 19.0918C11.5859 19.1592 11.6709 19.168 11.709 19.1211C11.7471 19.083 11.7295 18.9951 11.6709 18.9395C11.6064 18.8721 11.5186 18.8633 11.4805 18.9102ZM11.1465 18.4795C11.0996 18.5088 11.0996 18.585 11.1465 18.6523C11.1934 18.7197 11.2725 18.749 11.3105 18.7197C11.3574 18.6816 11.3574 18.6055 11.3105 18.5381C11.2695 18.4707 11.1934 18.4414 11.1465 18.4795Z" fill="white"/>
</svg>
