<svg width="30" height="30" viewBox="0 0 30 30" fill="none" xmlns="http://www.w3.org/2000/svg">
<circle cx="15" cy="15" r="14" stroke="white" stroke-width="2"/>
<path d="M15.5676 12.1309C13.7043 12.1309 12.2014 13.6338 12.2014 15.4971C12.2014 17.3604 13.7043 18.8633 15.5676 18.8633C17.4309 18.8633 18.9338 17.3604 18.9338 15.4971C18.9338 13.6338 17.4309 12.1309 15.5676 12.1309ZM15.5676 17.6855C14.3635 17.6855 13.3792 16.7041 13.3792 15.4971C13.3792 14.29 14.3606 13.3086 15.5676 13.3086C16.7747 13.3086 17.7561 14.29 17.7561 15.4971C17.7561 16.7041 16.7717 17.6855 15.5676 17.6855ZM19.8567 11.9932C19.8567 12.4297 19.5051 12.7783 19.0715 12.7783C18.635 12.7783 18.2864 12.4268 18.2864 11.9932C18.2864 11.5596 18.6379 11.208 19.0715 11.208C19.5051 11.208 19.8567 11.5596 19.8567 11.9932ZM22.0862 12.79C22.0364 11.7383 21.7961 10.8066 21.0256 10.0391C20.2581 9.27148 19.3264 9.03125 18.2747 8.97852C17.1907 8.91699 13.9417 8.91699 12.8577 8.97852C11.8088 9.02832 10.8772 9.26855 10.1067 10.0361C9.33618 10.8037 9.09888 11.7354 9.04614 12.7871C8.98462 13.8711 8.98462 17.1201 9.04614 18.2041C9.09595 19.2559 9.33618 20.1875 10.1067 20.9551C10.8772 21.7227 11.8059 21.9629 12.8577 22.0156C13.9417 22.0771 17.1907 22.0771 18.2747 22.0156C19.3264 21.9658 20.2581 21.7256 21.0256 20.9551C21.7932 20.1875 22.0334 19.2559 22.0862 18.2041C22.1477 17.1201 22.1477 13.874 22.0862 12.79ZM20.6858 19.3672C20.4573 19.9414 20.0149 20.3838 19.4377 20.6152C18.5735 20.958 16.5227 20.8789 15.5676 20.8789C14.6125 20.8789 12.5588 20.9551 11.6975 20.6152C11.1233 20.3867 10.6809 19.9443 10.4495 19.3672C10.1067 18.5029 10.1858 16.4521 10.1858 15.4971C10.1858 14.542 10.1096 12.4883 10.4495 11.627C10.678 11.0527 11.1204 10.6104 11.6975 10.3789C12.5618 10.0361 14.6125 10.1152 15.5676 10.1152C16.5227 10.1152 18.5764 10.0391 19.4377 10.3789C20.012 10.6074 20.4543 11.0498 20.6858 11.627C21.0286 12.4912 20.9495 14.542 20.9495 15.4971C20.9495 16.4521 21.0286 18.5059 20.6858 19.3672Z" fill="white"/>
</svg>
