<svg width="30" height="30" viewBox="0 0 30 30" fill="none" xmlns="http://www.w3.org/2000/svg">
<circle cx="15" cy="15" r="14" stroke="white" stroke-width="2"/>
<path d="M11.8754 21.125H9.1543V12.3623H11.8754V21.125ZM10.5134 11.167C9.64326 11.167 8.9375 10.4463 8.9375 9.57617C8.9375 9.15822 9.10353 8.75739 9.39906 8.46185C9.6946 8.16632 10.0954 8.00029 10.5134 8.00029C10.9313 8.00029 11.3322 8.16632 11.6277 8.46185C11.9232 8.75739 12.0893 9.15822 12.0893 9.57617C12.0893 10.4463 11.3832 11.167 10.5134 11.167ZM22.0596 21.125H19.3443V16.8594C19.3443 15.8428 19.3238 14.5391 17.9296 14.5391C16.5148 14.5391 16.298 15.6436 16.298 16.7861V21.125H13.5799V12.3623H16.1896V13.5576H16.2277C16.591 12.8691 17.4784 12.1426 18.8023 12.1426C21.5563 12.1426 22.0625 13.9561 22.0625 16.3115V21.125H22.0596Z" fill="white"/>
</svg>
